<svg width="938" height="99" viewBox="0 0 938 99" fill="none" xmlns="http://www.w3.org/2000/svg">
<path d="M92.832 82H3.168L26.976 23.056H123.168C123.648 23.056 124.032 23.536 124.416 24.496C124.704 25.456 124.608 26.512 124.224 27.664L118.656 41.392C117.6 43.888 116.352 46 114.816 47.728C113.28 49.552 111.648 51.184 109.92 52.624C110.592 54.736 110.976 56.464 110.976 57.712C110.976 58.864 110.496 60.784 109.632 63.664L106.56 71.248C106.08 72.4 105.408 73.552 104.448 74.8C103.488 76.048 102.432 77.2 101.184 78.256C99.936 79.312 98.592 80.176 97.152 80.944C95.712 81.712 94.272 82 92.832 82ZM58.464 34.96L44.256 70.096H69.024C69.504 70.096 69.984 69.904 70.464 69.424C70.944 69.04 71.328 68.56 71.52 67.984L75.36 58.384H59.328L64.128 46.48H80.16L84.864 34.96H58.464ZM169.983 51.184L173.439 42.64C173.631 41.872 173.343 41.296 172.671 41.104H125.055L129.279 30.736H201.663C202.911 30.736 203.967 31.12 204.735 31.696C205.503 32.368 205.983 33.136 206.367 34.096C206.655 35.056 206.751 36.112 206.655 37.168C206.559 38.32 206.367 39.28 205.983 40.144L203.103 47.344C202.335 49.264 201.471 51.088 200.607 52.624C199.647 54.16 198.591 55.6 197.247 56.752C195.903 57.904 194.175 58.96 192.255 59.728C190.239 60.592 187.743 61.168 184.863 61.552H148.383L144.351 71.632H193.311L189.087 82H108.543L115.263 65.392C116.031 63.472 116.799 61.744 117.759 60.208C118.623 58.672 119.775 57.232 121.119 56.08C122.463 54.928 124.095 53.872 126.111 53.008C128.031 52.24 130.527 51.568 133.503 51.184H169.983ZM285.113 82H195.449L219.257 23.056H315.449C315.929 23.056 316.313 23.536 316.697 24.496C316.985 25.456 316.889 26.512 316.505 27.664L310.937 41.392C309.881 43.888 308.633 46 307.097 47.728C305.561 49.552 303.929 51.184 302.201 52.624C302.873 54.736 303.257 56.464 303.257 57.712C303.257 58.864 302.777 60.784 301.913 63.664L298.841 71.248C298.361 72.4 297.689 73.552 296.729 74.8C295.769 76.048 294.713 77.2 293.465 78.256C292.217 79.312 290.873 80.176 289.433 80.944C287.993 81.712 286.553 82 285.113 82ZM250.745 34.96L236.537 70.096H261.305C261.785 70.096 262.265 69.904 262.745 69.424C263.225 69.04 263.609 68.56 263.801 67.984L267.641 58.384H251.609L256.409 46.48H272.441L277.145 34.96H250.745Z" fill="#0097FE"/>
<path d="M319 97.5L356 6H938L896.5 97.5H319Z" fill="#0097FE"/>
<path d="M438.016 82H355.168L378.976 23.056H415.264L396.256 70.096H442.816L438.016 82ZM547.62 30.736L526.884 82H495.3L502.404 64.432H483.012L475.908 82H444.324L461.22 40.144C461.604 39.28 462.18 38.32 462.948 37.168C463.716 36.112 464.676 35.056 465.732 34.096C466.788 33.136 467.94 32.368 469.284 31.696C470.532 31.12 471.876 30.736 473.22 30.736H547.62ZM491.652 42.928L487.236 54.064H506.628L511.812 41.104H493.956C493.38 41.104 492.9 41.392 492.516 41.776C492.132 42.16 491.844 42.544 491.652 42.928ZM614.031 64.432H581.007L585.231 54.064H599.151L604.335 41.104H581.295L564.783 82H533.199L553.935 30.736H637.551C638.031 30.736 638.415 31.216 638.703 31.984C638.895 32.848 638.895 33.808 638.511 34.768L632.271 50.224C631.503 52.144 630.639 53.968 629.775 55.504C628.815 57.04 627.759 58.48 626.415 59.632C625.071 60.784 623.343 61.84 621.423 62.608C619.407 63.472 616.911 64.048 614.031 64.432ZM662.211 41.104H642.243L646.467 30.736H718.562L714.339 41.104H693.795L677.283 82H645.699L662.211 41.104ZM804.423 30.736C806.439 30.736 807.015 31.888 806.055 34.192L790.599 72.592C790.215 73.552 789.543 74.608 788.775 75.664C788.007 76.816 787.047 77.776 785.991 78.736C784.839 79.696 783.687 80.464 782.439 81.04C781.191 81.712 779.943 82 778.695 82H707.271C705.159 82 704.679 80.848 705.639 78.544L721.095 40.144C721.479 39.28 722.055 38.32 722.823 37.168C723.591 36.112 724.551 35.056 725.607 34.096C726.663 33.136 727.815 32.368 729.159 31.696C730.407 31.12 731.751 30.736 733.095 30.736H804.423ZM771.687 41.104H753.831C753.255 41.104 752.775 41.392 752.391 41.776C752.007 42.16 751.719 42.544 751.527 42.928L740.007 71.632H757.959C758.439 71.632 758.919 71.44 759.303 71.056C759.687 70.672 759.879 70.192 760.071 69.808L771.687 41.104ZM873.906 64.432H840.882L845.106 54.064H859.026L864.21 41.104H841.17L824.658 82H793.074L813.81 30.736H897.426C897.906 30.736 898.29 31.216 898.578 31.984C898.77 32.848 898.77 33.808 898.386 34.768L892.146 50.224C891.378 52.144 890.514 53.968 889.65 55.504C888.69 57.04 887.634 58.48 886.29 59.632C884.946 60.784 883.218 61.84 881.298 62.608C879.282 63.472 876.786 64.048 873.906 64.432Z" fill="white"/>
</svg>
