<svg xmlns="http://www.w3.org/2000/svg" viewBox="0 0 2060 2060"><defs><style>.cls-1{fill:#0098ff;}.cls-2{fill:#fff;}</style></defs><g id="Layer_2" data-name="Layer 2"><g id="Layer_1-2" data-name="Layer 1"><circle class="cls-1" cx="1030" cy="1030" r="1030"/><g id="Cut_Out" data-name="Cut Out"><path class="cls-2" d="M666.73,634.42H267.79V755.79H666.73s75.08-7.8,75.08,59.54S666.56,876,666.56,876h-280V770.3H267.79v454.21H704.07s33.25,1.43,68.31-16.51c-38.48-31-47.47-77.59-49.47-117-16.67,14.69-38.7,17-38.7,17H387.68V985.88H683.81s22.2,3.3,39,18.73c1.65-32.79,9.11-56.53,40.25-96.38,24.3-31.08,59.26-43.89,85.44-49.18,3-14.57,4.78-32.45,4.78-54.36C853.27,631.12,666.73,634.42,666.73,634.42Z"/><path class="cls-2" d="M1740.23,929c0-6.31,52-7.51,52-124.26,0-173.57-186.55-170.27-186.55-170.27H1228.47c61.94,25.84,92.34,78.39,105.37,121.37h271.82s75.09-7.8,75.09,59.54S1605.49,876,1605.49,876H1339c-4.67,19.47-14.06,41.22-32.45,64.61-28.69,36.55-71,52.15-99.84,58.69v225.2H1643s1.94.06,5.41,0c26.81-1,143.8-14.63,143.8-178.52C1792.21,957.76,1740.23,935.27,1740.23,929Zm-91.82,167.9a80.13,80.13,0,0,1-25.27,7.91H1326.61V985.88h296.13s57.44,8.6,57.44,62.39C1680.18,1077.19,1663.67,1089.05,1648.41,1096.85Z"/><path class="cls-2" d="M1620,1105v119.54H889.82c-33.53,0-59.54-5.12-79.81-13.83-74.17-31.88-70.59-111.35-70.59-159.85,0-61.82-2.9-80.95,37.06-132.06,26.3-33.59,67.17-43,92.11-45.49a144,144,0,0,1,21.63-.74h252.29s67.8-13.6,67.8-64-67.8-52.32-67.8-52.32H871c-13.5-61.93-52.89-99.45-97-120.62h368.48c160.36,0,182.62,142.65,182.62,170.26s10.19,70.53-32,124.21-119.15,57-119.15,57H934.68s-29.32-6-54.76,8.76a85.61,85.61,0,0,0-8.43,5.58c-17.42,13.32-18.73,27.1-18.73,27.1V1105Z"/></g><path class="cls-2" d="M570,1489.09v8.21q0,4-5.82,4H432.76q-5.81,0-5.81-4V1319.85q0-4,5.81-4h14c3.88,0,5.81,1.32,5.81,4v165.27H564.18Q570,1485.12,570,1489.09Z"/><path class="cls-2" d="M783.21,1501.27H768.87c-3.88,0-5.43-1.32-7-4.24l-17.06-38.93H637.06L620,1497c-1.17,2.92-3.1,4.24-7,4.24H598.68c-3.87,0-5.81-1.32-4.65-4.24l80.25-176.91c1.16-2.65,3.88-4.24,7.37-4.24h18.22c3.48,0,6.2,1.59,7.36,4.24L787.87,1497C789.42,1500,787.09,1501.27,783.21,1501.27Zm-45.35-58.53L691,1337.07,644,1442.74Z"/><path class="cls-2" d="M999.53,1368.85v14.3c0,34.17-27.53,53-76,53h-72.5v61.18q0,4-5.81,4h-14q-5.81,0-5.81-4V1319.85q0-4,5.81-4h92.27C972,1315.88,999.53,1334.68,999.53,1368.85Zm-25.59,0c0-26.49-15.12-36.82-50.39-36.82h-72.5V1420h72.5c35.27,0,50.39-10.33,50.39-36.81Z"/><path class="cls-2" d="M1195.3,1319.85v8.21q0,4-5.82,4h-64.35V1497.3q0,4-5.82,4h-14q-5.82,0-5.82-4V1332h-65.12q-5.82,0-5.82-4v-8.21q0-4,5.82-4h155.06Q1195.3,1315.88,1195.3,1319.85Z"/><path class="cls-2" d="M1405,1369.64v77.87c0,36.28-27.52,55.09-77.92,55.09h-28.69c-50.39,0-77.92-18.81-77.92-55.09v-77.87c0-36.28,27.53-55.09,77.92-55.09h28.69C1377.5,1314.55,1405,1333.36,1405,1369.64Zm-25.58,0c0-27.28-15.12-38.93-52.34-38.93h-28.69c-37.21,0-52.33,11.65-52.33,38.93v77.87c0,27.28,15.12,38.93,52.33,38.93h28.69c37.22,0,52.34-11.65,52.34-38.93Z"/><path class="cls-2" d="M1625.6,1368.85v14.3c0,34.17-27.52,53-76,53h-72.49v61.18q0,4-5.82,4h-14q-5.8,0-5.81-4V1319.85q0-4,5.81-4h92.27C1598.08,1315.88,1625.6,1334.68,1625.6,1368.85Zm-25.58,0c0-26.49-15.12-36.82-50.4-36.82h-72.49V1420h72.49c35.28,0,50.4-10.33,50.4-36.81Z"/></g></g></svg>