<svg width="232" height="61" viewBox="0 0 232 61" fill="none" xmlns="http://www.w3.org/2000/svg">
<path d="M55.8704 40.5873V11.1071C55.8704 9.93795 54.8683 8.93579 53.6991 8.93579H8.01729C6.84811 8.93579 5.84595 9.93795 5.84595 11.1071V40.6709C5.84595 41.84 6.84811 42.8422 8.01729 42.8422H25.8056C26.9748 42.8422 27.977 43.8444 27.977 45.0135C27.977 46.1827 26.9748 47.1849 25.8056 47.1849H21.4629C18.9575 47.1849 16.9532 49.1892 16.9532 51.6946H44.6796C44.6796 49.1892 42.6753 47.1849 40.1699 47.1849H35.9107C34.7416 47.1849 33.7394 46.1827 33.7394 45.0135C33.7394 43.8444 34.7416 42.8422 35.9107 42.8422H53.6991C54.8683 42.7587 55.8704 41.84 55.8704 40.5873ZM10.6897 32.403H22.6321C23.0497 32.403 23.4673 32.6536 23.6343 32.9876C24.1354 33.9898 25.1375 34.6579 26.3902 34.6579C28.311 34.6579 29.8143 32.9041 29.3967 30.9833C29.1462 29.7306 28.144 28.812 26.9748 28.5614C25.5551 28.3109 24.3024 28.979 23.7178 30.1482C23.5508 30.4822 23.1332 30.7328 22.7156 30.7328H10.6897V26.7241H16.7862C17.2038 26.7241 17.6213 26.9747 17.7884 27.3087C18.2894 28.3109 19.2916 28.979 20.5443 28.979C22.4651 28.979 23.9683 27.2252 23.5508 25.3044C23.3002 24.0517 22.2981 23.1331 21.1289 22.8825C19.7092 22.632 18.4565 23.3001 17.8719 24.4693C17.7048 24.8033 17.2873 25.0539 16.8697 25.0539H10.7732V21.2122H22.7156C23.1332 21.2122 23.5508 21.4628 23.7178 21.7968C24.2189 22.799 25.221 23.4671 26.4737 23.4671C28.3945 23.4671 29.8978 21.7133 29.4802 19.7925C29.2297 18.5398 28.2275 17.6212 27.0583 17.3706C25.6386 17.1201 24.3859 17.7882 23.8013 18.9574C23.6343 19.2914 23.2167 19.542 22.7992 19.542H10.6897V13.9466H51.1102V38.249H10.6897V32.403ZM24.887 31.5679C24.887 30.7328 25.5551 30.1482 26.3067 30.1482C27.1418 30.1482 27.7264 30.8163 27.7264 31.5679C27.7264 32.403 27.0583 32.9876 26.3067 32.9876C25.5551 32.9876 24.887 32.3195 24.887 31.5679ZM19.0411 25.8055C19.0411 24.9704 19.7092 24.3858 20.4608 24.3858C21.2959 24.3858 21.8805 25.0539 21.8805 25.8055C21.8805 26.6406 21.2124 27.2252 20.4608 27.2252C19.6256 27.2252 19.0411 26.5571 19.0411 25.8055ZM24.887 20.1266C24.887 19.2914 25.5551 18.7069 26.3067 18.7069C27.1418 18.7069 27.7264 19.375 27.7264 20.1266C27.7264 20.9617 27.0583 21.5463 26.3067 21.5463C25.5551 21.6298 24.887 20.9617 24.887 20.1266Z" fill="#174189"/>
<path d="M91.8635 20.2061V20.4507C94.2274 20.9126 95.6946 22.2983 95.6946 24.5806C95.6946 27.6237 93.3579 29.6072 89.0378 29.6072H81.8919V12.0821H88.3857C92.7058 12.0821 95.0153 13.6852 95.0153 16.4022C95.0153 18.0868 93.9557 19.3638 91.8635 20.2061ZM88.3585 15.5328H86.212V18.9563H88.277C89.8801 18.9563 90.668 18.3857 90.668 17.2174C90.668 16.1034 89.9073 15.5328 88.3585 15.5328ZM86.212 26.1565H88.9019C90.5322 26.1565 91.3473 25.4772 91.3473 24.0915C91.3473 22.7602 90.4507 22.1081 88.6302 22.1081H86.212V26.1565ZM110.525 29.6072H97.0483C96.9667 26.9173 97.7003 24.8251 98.7328 23.6296C99.7653 22.4341 101.097 21.5375 102.401 20.9397C104.276 20.0703 105.96 19.228 105.96 17.326C105.96 16.2121 105.199 15.5056 103.895 15.5056C102.618 15.5056 101.749 16.1034 101.124 17.8423L97.1841 16.8641C97.5917 15.1524 98.4611 13.8482 99.7381 13.0059C101.015 12.1636 102.455 11.7561 104.085 11.7561C108.84 11.7561 110.443 14.5003 110.443 17.0543C110.498 20.6952 107.482 22.3798 105.118 23.3579C103.461 24.0915 101.912 24.8523 101.613 25.7489H110.525V29.6072ZM122.908 20.2061V20.4507C125.272 20.9126 126.739 22.2983 126.739 24.5806C126.739 27.6237 124.403 29.6072 120.082 29.6072H112.936V12.0821H119.43C123.75 12.0821 126.06 13.6852 126.06 16.4022C126.06 18.0868 125 19.3638 122.908 20.2061ZM119.403 15.5328H117.257V18.9563H119.322C120.925 18.9563 121.713 18.3857 121.713 17.2174C121.713 16.1034 120.952 15.5328 119.403 15.5328ZM117.257 26.1565H119.947C121.577 26.1565 122.392 25.4772 122.392 24.0915C122.392 22.7602 121.495 22.1081 119.675 22.1081H117.257V26.1565ZM137.953 12.0821V25.7489H144.202V29.6072H133.633V12.0821H137.953ZM161.466 29.6072H156.712L155.896 26.3195H150.816L150 29.6072H145.49L150.598 12.0821H156.331L161.466 29.6072ZM152.446 19.6084L151.631 22.9775H155.054L154.212 19.6084L153.451 16.1577H153.207L152.446 19.6084ZM163.245 12.0821H169.657C174.357 12.0821 176.721 14.3101 176.721 17.8966C176.721 21.782 173.977 23.9285 169.63 23.9285H167.565V29.6072H163.245V12.0821ZM167.565 20.342H169.304C171.396 20.342 172.238 19.6899 172.238 17.951C172.238 16.4566 171.396 15.6958 169.711 15.6958H167.565V20.342ZM177.974 12.0821H191.777V15.9132H187.076V29.6072H182.702V15.9132H177.974V12.0821ZM200.838 29.9332C198.175 29.9332 196.137 29.1181 194.697 27.4607C193.257 25.8033 192.551 23.6025 192.551 20.8039C192.551 18.114 193.338 15.9132 194.887 14.2558C196.436 12.5984 198.501 11.7561 201.082 11.7561C203.745 11.7561 205.81 12.5712 207.25 14.2286C208.69 15.886 209.396 18.114 209.396 20.8854C209.396 23.6025 208.608 25.7761 207.06 27.4335C205.511 29.0909 203.419 29.9332 200.838 29.9332ZM200.973 26.1022C203.582 26.1022 204.913 24.01 204.913 20.8854C204.913 17.3804 203.609 15.6143 200.973 15.6143C198.338 15.6143 197.006 17.6793 197.006 20.8039C197.006 24.3361 198.338 26.1022 200.973 26.1022ZM211.855 12.0821H218.267C222.967 12.0821 225.331 14.3101 225.331 17.8966C225.331 21.782 222.587 23.9285 218.24 23.9285H216.175V29.6072H211.855V12.0821ZM216.175 20.342H217.914C220.006 20.342 220.848 19.6899 220.848 17.951C220.848 16.4566 220.006 15.6958 218.321 15.6958H216.175V20.342Z" fill="#242424"/>
<path d="M83.7561 41.2402C84.7449 41.2402 85.5366 41.5308 86.1312 42.112C86.7325 42.6933 87.0331 43.4783 87.0331 44.4671C87.0331 45.4426 86.7224 46.2276 86.1011 46.8222C85.4798 47.4101 84.678 47.7041 83.6959 47.7041H81.892V41.2402H83.7561ZM83.726 46.9124C84.4342 46.9124 85.0054 46.6886 85.4397 46.2409C85.874 45.7866 86.0911 45.1954 86.0911 44.4671C86.0911 43.7255 85.8773 43.1343 85.4497 42.6933C85.0288 42.2524 84.4542 42.0319 83.726 42.0319H82.804V46.9124H83.726ZM88.273 47.7041V41.2402H89.1849V47.7041H88.273ZM94.3969 47.3233C93.9893 47.644 93.4348 47.8043 92.7333 47.8043C92.0318 47.8043 91.4739 47.6473 91.0597 47.3333C90.6521 47.0193 90.4016 46.585 90.3081 46.0305L91.1699 45.8501C91.3704 46.6318 91.8915 47.0226 92.7333 47.0226C93.1542 47.0226 93.4849 46.9358 93.7254 46.7621C93.9726 46.5884 94.0962 46.3478 94.0962 46.0405C94.0962 45.7599 94.006 45.5361 93.8256 45.3691C93.6519 45.1954 93.4315 45.0784 93.1642 45.0183C92.897 44.9582 92.6064 44.8847 92.2923 44.7978C91.9783 44.711 91.6877 44.6174 91.4205 44.5172C91.1532 44.4103 90.9294 44.2266 90.749 43.966C90.5753 43.6988 90.4885 43.3614 90.4885 42.9539C90.4885 42.4528 90.6822 42.0252 91.0697 41.6711C91.4639 41.317 92.0084 41.14 92.7032 41.14C93.3847 41.14 93.9092 41.297 94.2766 41.611C94.6441 41.9183 94.8646 42.3192 94.938 42.8136L94.0762 42.9539C94.0094 42.6399 93.8591 42.386 93.6252 42.1922C93.3981 41.9918 93.0807 41.8916 92.6732 41.8916C92.2857 41.8916 91.9717 41.9884 91.7311 42.1822C91.4973 42.3693 91.3804 42.6098 91.3804 42.9038C91.3804 43.1309 91.4472 43.3213 91.5808 43.475C91.7144 43.622 91.8881 43.7322 92.1019 43.8057C92.3157 43.8792 92.5496 43.9427 92.8034 43.9961C93.064 44.0496 93.3212 44.1164 93.5751 44.1965C93.8357 44.2767 94.0728 44.3769 94.2866 44.4972C94.5004 44.6174 94.6741 44.7978 94.8078 45.0384C94.9414 45.2789 95.0082 45.5728 95.0082 45.9203C95.0082 46.5282 94.8044 46.9959 94.3969 47.3233ZM100.713 41.2402V42.0519H98.5588V47.7041H97.6469V42.0519H95.4822V41.2402H100.713ZM104.466 44.6074C104.807 44.701 105.077 44.8646 105.278 45.0985C105.485 45.3323 105.622 45.5762 105.689 45.8301C105.762 46.0839 105.866 46.3946 105.999 46.7621C106.133 47.1295 106.29 47.4435 106.47 47.7041H105.478C105.331 47.4703 105.201 47.1963 105.087 46.8823C104.974 46.5683 104.884 46.3011 104.817 46.0806C104.75 45.8601 104.66 45.6497 104.546 45.4492C104.433 45.2421 104.266 45.0851 104.045 44.9782C103.831 44.8713 103.554 44.8179 103.213 44.8179H102.622V47.7041H101.71V41.2402H103.955C104.743 41.2402 105.348 41.4005 105.769 41.7212C106.196 42.0352 106.41 42.4561 106.41 42.9839C106.41 43.4249 106.233 43.779 105.879 44.0462C105.532 44.3068 105.061 44.4771 104.466 44.5573V44.6074ZM103.735 44.1765C104.89 44.1765 105.468 43.8224 105.468 43.1142C105.468 42.7601 105.325 42.4862 105.037 42.2924C104.757 42.092 104.353 41.9918 103.825 41.9918H102.622V44.1765H103.735ZM107.631 47.7041V41.2402H108.543V47.7041H107.631ZM113.254 44.3068C113.748 44.3669 114.139 44.544 114.426 44.8379C114.72 45.1252 114.867 45.4893 114.867 45.9303C114.867 46.4915 114.667 46.9291 114.266 47.2431C113.872 47.5504 113.301 47.7041 112.552 47.7041H110.107V41.2402H112.262C113.017 41.2402 113.591 41.3771 113.986 41.6511C114.38 41.9183 114.577 42.3025 114.577 42.8035C114.577 43.1576 114.457 43.4616 114.216 43.7155C113.975 43.9627 113.655 44.1431 113.254 44.2567V44.3068ZM112.262 41.9918H111.019V43.9861H112.292C112.666 43.9861 112.98 43.8959 113.234 43.7155C113.494 43.5284 113.625 43.2846 113.625 42.9839C113.625 42.3225 113.17 41.9918 112.262 41.9918ZM112.522 46.9525C113.458 46.9525 113.925 46.575 113.925 45.82C113.925 45.4793 113.795 45.2121 113.535 45.0183C113.274 44.8179 112.923 44.7177 112.482 44.7177H111.019V46.9525H112.522ZM120.159 47.1128C119.752 47.5738 119.137 47.8043 118.315 47.8043C117.494 47.8043 116.879 47.5738 116.471 47.1128C116.064 46.6518 115.86 45.9871 115.86 45.1185V41.2402H116.782V45.1185C116.782 46.3545 117.293 46.9725 118.315 46.9725C119.351 46.9725 119.869 46.3545 119.869 45.1185V41.2402H120.781V45.1185C120.781 45.9871 120.574 46.6518 120.159 47.1128ZM126.922 41.2402V42.0519H124.768V47.7041H123.856V42.0519H121.691V41.2402H126.922ZM127.919 47.7041V41.2402H128.831V47.7041H127.919ZM133.081 47.8043C132.192 47.8043 131.471 47.5003 130.916 46.8924C130.362 46.2777 130.084 45.4726 130.084 44.4771C130.084 43.4817 130.372 42.6766 130.946 42.0619C131.521 41.4473 132.249 41.14 133.131 41.14C134.019 41.14 134.741 41.4473 135.296 42.0619C135.85 42.6699 136.127 43.4716 136.127 44.4671C136.127 45.4626 135.837 46.2677 135.255 46.8823C134.681 47.497 133.956 47.8043 133.081 47.8043ZM133.101 46.9825C133.709 46.9825 134.207 46.752 134.594 46.2911C134.982 45.8234 135.175 45.2154 135.175 44.4671C135.175 43.7188 134.985 43.1142 134.604 42.6532C134.223 42.1922 133.722 41.9617 133.101 41.9617C132.493 41.9617 131.995 42.1956 131.608 42.6632C131.22 43.1242 131.026 43.7289 131.026 44.4771C131.026 45.2254 131.217 45.8301 131.598 46.2911C131.978 46.752 132.48 46.9825 133.101 46.9825ZM137.373 47.7041V41.2402H138.395L141.071 45.4492L141.642 46.4213H141.692V41.2402H142.544V47.7041H141.482L138.866 43.5852L138.275 42.5931H138.215V47.7041H137.373Z" fill="#BD2189"/>
<path d="M68.147 14.3643V46.1828" stroke="#E5E5E5" stroke-width="0.62635" stroke-miterlimit="10"/>
</svg>
